<svg xmlns="http://www.w3.org/2000/svg" width="22.647" height="22.646" viewBox="0 0 22.647 22.646"><g transform="translate(0 -0.006)"><path d="M20.767.006H8.938A1.881,1.881,0,0,0,7.059,1.885v1.65H5.408A1.881,1.881,0,0,0,3.529,5.414V7.065H1.879A1.881,1.881,0,0,0,0,8.944V20.773a1.881,1.881,0,0,0,1.879,1.879H13.709a1.881,1.881,0,0,0,1.879-1.879v-1.65h1.651a1.881,1.881,0,0,0,1.879-1.879v-1.65h1.65a1.881,1.881,0,0,0,1.879-1.879V1.885A1.881,1.881,0,0,0,20.767.006ZM1.592,8.944a.288.288,0,0,1,.287-.287H13.709A.288.288,0,0,1,14,8.944v8.478l-3.607-.268-1.653-1.9a.6.6,0,0,0-.823-.074L6.569,16.256l-1.5-3.37a.6.6,0,0,0-1.054-.07L1.592,16.747Zm12.4,10H1.639l2.8-4.543,1.354,3.041a.6.6,0,0,0,.918.224l1.5-1.2,1.439,1.65a.6.6,0,0,0,.406.2l3.94.293v.329Zm0,1.825a.287.287,0,0,1-.287.287H1.879a.287.287,0,0,1-.287-.287v-.631H14Zm3.53-3.529a.287.287,0,0,1-.287.287H15.588V8.944a1.881,1.881,0,0,0-1.879-1.879H5.121V5.414a.287.287,0,0,1,.287-.287h11.83a.287.287,0,0,1,.287.287V17.244Zm3.529-3.529a.287.287,0,0,1-.287.287h-1.65V5.414a1.881,1.881,0,0,0-1.879-1.879H8.651V1.885A.287.287,0,0,1,8.938,1.6H20.767a.287.287,0,0,1,.287.287V13.714Z"/><path d="M181.567,218.174a1.86,1.86,0,1,0-1.861-1.86A1.861,1.861,0,0,0,181.567,218.174Z" transform="translate(-171.378 -204.509)"/></g></svg>