<svg xmlns="http://www.w3.org/2000/svg" width="22.439" height="22.439" viewBox="0 0 22.439 22.439"><g transform="translate(0 0)"><g transform="translate(0 0)"><path d="M19.153,3.286A11.22,11.22,0,0,0,3.286,19.153,11.22,11.22,0,0,0,19.153,3.286ZM11.219,21.124a9.9,9.9,0,1,1,9.9-9.9A9.916,9.916,0,0,1,11.219,21.124Z" transform="translate(0 0)"/></g></g><g transform="translate(8.809 3.506)"><path d="M203.41,80a2.41,2.41,0,1,0,2.41,2.41A2.413,2.413,0,0,0,203.41,80Zm0,3.506a1.1,1.1,0,1,1,1.1-1.1A1.1,1.1,0,0,1,203.41,83.506Z" transform="translate(-201 -80)"/></g><g transform="translate(8.152 9.642)"><path d="M191.259,227.889V220H186v1.315h.877v6.574H186V229.2h6.136v-1.315Zm-1.315,0h-1.753v-6.574h1.753Z" transform="translate(-186 -220)"/></g></svg>