<svg xmlns="http://www.w3.org/2000/svg" width="28" height="22.439" viewBox="0 0 28 22.439"><g transform="translate(-220 -188)"><g transform="translate(220 131.442)"><g transform="translate(0 61)"><path d="M21.55,61H2.077A2.08,2.08,0,0,0,0,63.077V76.92A2.08,2.08,0,0,0,2.077,79H21.55a2.08,2.08,0,0,0,2.077-2.077V63.077A2.08,2.08,0,0,0,21.55,61Zm-.287,1.384L11.857,71.79,2.37,62.384ZM1.384,76.633V63.357l6.667,6.61Zm.979.979,6.671-6.671,2.338,2.317a.692.692,0,0,0,.977,0l2.279-2.279,6.635,6.635Zm19.879-.979L15.607,70l6.635-6.635Z" transform="translate(0 -61)"/></g></g><g transform="translate(238 188)" fill="#f5f5f5" stroke="#000" stroke-width="1.5"><circle cx="5" cy="5" r="5" stroke="none"/><circle cx="5" cy="5" r="4.25" fill="none"/></g></g></svg>