<?xml version="1.0" encoding="iso-8859-1"?>
<!-- Generator: Adobe Illustrator 19.0.0, SVG Export Plug-In . SVG Version: 6.00 Build 0)  -->
<svg version="1.1" id="Capa_1" xmlns="http://www.w3.org/2000/svg" xmlns:xlink="http://www.w3.org/1999/xlink" x="0px" y="0px"
	 viewBox="0 0 403.096 403.096" style="enable-background:new 0 0 403.096 403.096;" xml:space="preserve">
<g>
	<g>
		<path d="M395.376,170.396h-326.2l300.36-103.52c7.292-2.517,11.174-10.46,8.68-17.76l-5.76-16.72
			c-7.397-21.327-30.641-32.662-52-25.36l-292.88,100.92c-21.327,7.397-32.663,30.641-25.36,52l5.76,16.72
			c0.718,2.094,1.924,3.986,3.52,5.52v185.04c0.006,8.228,3.288,16.116,9.12,21.92c5.792,5.826,13.665,9.107,21.88,9.12h329.52
			c8.228-0.006,16.116-3.288,21.92-9.12c5.841-5.786,9.137-13.659,9.16-21.88h0v-189.16
			C403.096,173.852,399.639,170.396,395.376,170.396z M387.696,185.956l0.04,41.76h-73.96l30.52-41.76H387.696z M325.256,185.796
			l-30.52,41.76h-55.76l30.56-41.76H325.256z M250.456,185.796l-30.52,41.76h-55.76l30.52-41.76H250.456z M175.656,185.796
			l-30.56,41.76h-55.56l30.52-41.76H175.656z M100.856,185.796l-30.56,41.76h-43.4v-41.76H100.856z M325.536,21.556
			c13.339-4.448,27.769,2.696,32.32,16l5.32,15.4l-41,13.96l-42.52-29.36L325.536,21.556z M261.536,43.596l42.52,29.52l-52.6,18.16
			l-42.52-29.72L261.536,43.596z M190.896,67.956l42.64,29.6l-52.84,18.12l-42.48-29.56L190.896,67.956z M120.176,92.356
			l42.48,29.52l-52.68,18.16l-42.48-29.52L120.176,92.356z M16.776,154.956c-4.544-13.318,2.513-27.807,15.8-32.44l16.96-5.8
			l42.4,29.56l-69.88,24L16.776,154.956z M26.896,242.996h360.76l0.08,84.72H26.896V242.996z M86.736,382.956h-44
			c-4.139,0.005-8.111-1.635-11.04-4.56c-2.943-2.92-4.599-6.894-4.6-11.04v-24h60L86.736,382.956z M102.136,382.956v-40h97.44
			l0.04,40H102.136z M215.016,382.956v-40h97.44l0.04,40H215.016z M387.736,367.316c0.005,4.139-1.635,8.111-4.56,11.04
			c-2.92,2.943-6.894,4.599-11.04,4.6h-44v-40h60L387.736,367.316z"/>
	</g>
</g>
<g>
</g>
<g>
</g>
<g>
</g>
<g>
</g>
<g>
</g>
<g>
</g>
<g>
</g>
<g>
</g>
<g>
</g>
<g>
</g>
<g>
</g>
<g>
</g>
<g>
</g>
<g>
</g>
<g>
</g>
</svg>
