<svg xmlns="http://www.w3.org/2000/svg" width="35.61" height="22.439" viewBox="0 0 35.61 22.439"><path d="M35.241,2a.755.755,0,0,0-.747-.014l-8.17,4.461V3.772A3.777,3.777,0,0,0,22.552,0H3.773A3.777,3.777,0,0,0,0,3.772V18.667a3.777,3.777,0,0,0,3.772,3.772H22.552a3.777,3.777,0,0,0,3.772-3.772V16.039L34.495,20.5a.754.754,0,0,0,1.116-.662V2.65A.754.754,0,0,0,35.241,2ZM24.814,18.667a2.266,2.266,0,0,1-2.263,2.263H3.773a2.266,2.266,0,0,1-2.263-2.263V3.772A2.266,2.266,0,0,1,3.773,1.509H22.552a2.266,2.266,0,0,1,2.263,2.263Zm9.287-.1-7.778-4.247V8.168L34.1,3.922Zm0,0" transform="translate(-0.001 0)"/></svg>